<svg width="30" height="30" viewBox="0 0 30 30" fill="none" xmlns="http://www.w3.org/2000/svg">
<path fill-rule="evenodd" clip-rule="evenodd" d="M15.0252 15.8157C15.3321 15.8157 15.628 15.7132 15.8558 15.5281L26.3189 6.9196C25.9064 6.66509 25.418 6.52887 24.918 6.52881H5.08285C4.58283 6.52887 4.09451 6.66509 3.682 6.9196L14.1946 15.5281C14.4224 15.7132 14.7184 15.8157 15.0252 15.8157ZM26.8993 20.0496V7.79964L16.583 16.8103C16.1478 17.1838 15.5845 17.3908 15.0004 17.392C14.4235 17.3943 13.8654 17.1957 13.4298 16.8331L3.10156 7.79964V20.0496C3.10156 20.9571 3.47765 21.8274 4.14709 22.4691C4.81653 23.1108 5.72449 23.4713 6.67122 23.4713H23.3296C24.2764 23.4713 25.1843 23.1108 25.8538 22.4691C26.5232 21.8274 26.8993 20.9571 26.8993 20.0496Z" fill="white"/>
</svg>
