<svg width="30" height="30" viewBox="0 0 30 30" fill="none" xmlns="http://www.w3.org/2000/svg">
<path d="M27 8.13023C26.117 8.49231 25.1688 8.73669 24.1718 8.84538C25.1883 8.28323 25.9692 7.39292 26.3376 6.33231C25.3856 6.85223 24.3323 7.23162 23.2108 7.43446C22.3121 6.55177 21.0323 6 19.6152 6C16.8957 6 14.6924 8.034 14.6924 10.5436C14.6924 10.8995 14.7352 11.247 14.8192 11.5793C10.7269 11.3896 7.09902 9.58062 4.66992 6.83146C4.24681 7.503 4.00375 8.28323 4.00375 9.11608C4.00375 10.6932 4.87322 12.0833 6.19355 12.8988C5.3871 12.8746 4.62791 12.6711 3.96399 12.3305C3.96324 12.3492 3.96324 12.3692 3.96324 12.3872C3.96324 14.5895 5.66017 16.4262 7.91298 16.8436C7.50038 16.9468 7.06527 17.0028 6.6159 17.0028C6.29782 17.0028 5.99025 16.9745 5.69017 16.9218C6.31583 18.726 8.13503 20.04 10.2888 20.0774C8.60465 21.2958 6.48162 22.0235 4.17479 22.0235C3.77719 22.0235 3.38485 22.002 3 21.9598C5.17854 23.2475 7.76669 24 10.5476 24C19.6039 24 24.5574 17.0762 24.5574 11.0712C24.5574 10.8745 24.5514 10.6779 24.5424 10.4827C25.5049 9.84231 26.3391 9.04269 27 8.13023Z" fill="white"/>
</svg>
