<svg width="30" height="30" viewBox="0 0 30 30" fill="none" xmlns="http://www.w3.org/2000/svg">
<path fill-rule="evenodd" clip-rule="evenodd" d="M26.7599 6.85144C27.5429 7.67827 27.7976 9.55619 27.7976 9.55619C27.7976 9.55619 28.0589 11.7597 28.0589 13.9641V16.0295C28.0589 18.2339 27.7976 20.4374 27.7976 20.4374C27.7976 20.4374 27.5421 22.3145 26.7599 23.1398C25.8641 24.1169 24.8714 24.2183 24.3106 24.2755C24.2494 24.2818 24.1933 24.2875 24.143 24.2938C20.4876 24.5676 14.9992 24.5771 14.9992 24.5771C14.9992 24.5771 8.20764 24.5125 6.11824 24.3034C6.01935 24.2841 5.89954 24.2691 5.76391 24.252C5.10222 24.1689 4.06379 24.0384 3.23849 23.139C2.45547 22.3137 2.20073 20.4366 2.20073 20.4366C2.20073 20.4366 1.93945 18.2339 1.93945 16.0287V13.9633C1.93945 11.7597 2.20073 9.55619 2.20073 9.55619C2.20073 9.55619 2.45629 7.67827 3.23849 6.85144C4.13824 5.87086 5.13424 5.77224 5.69375 5.71683C5.75266 5.711 5.80673 5.70564 5.85533 5.69979C9.50994 5.42285 14.9927 5.42285 14.9927 5.42285H15.0049C15.0049 5.42285 20.4876 5.42285 24.143 5.69979C24.1917 5.70565 24.2458 5.711 24.3047 5.71684C24.8644 5.77224 25.8609 5.8709 26.7599 6.85144ZM19.7477 14.4196L12.6242 19.3532V9.48588L19.7477 14.4196Z" fill="white"/>
</svg>
